<?xml version="1.0" encoding="UTF-8"?>
<svg id="Bolt" xmlns="http://www.w3.org/2000/svg" viewBox="0 0 38.09 42">
  <defs>
    <style>
      .cls-1 {
        stroke-linejoin: round;
      }

      .cls-1, .cls-2 {
        stroke-linecap: round;
      }

      .cls-1, .cls-2, .cls-3 {
        fill: none;
        stroke: #231f20;
      }

      .cls-1, .cls-2, .cls-3, .cls-4 {
        stroke-width: 2px;
      }

      .cls-2, .cls-3, .cls-4 {
        stroke-miterlimit: 10;
      }

      .cls-4 {
        stroke: #000;
      }
    </style>
  </defs>
  <path class="cls-3" d="m37.09,21.49c0,10.62-9.62,20.16-19.47,19.47-4.98-.35-11.27-2.05-14.35-6.15-5.01-6.68-1.23-15.62,6.15-21.52C14.55,9.2,11.48,1,21.72,1c8.2,0,15.37,11.27,15.37,20.49Z"/>
  <circle class="cls-4" cx="20.72" cy="27.5" r="3.5"/>
  <path class="cls-3" d="m31.22,16.29c0,1.27-.37,1.78-.51,1.78s0-.52,0-1.78-.65-2.29-.51-2.29,1.02,1.03,1.02,2.29Z"/>
  <path class="cls-2" d="m6.87,28.56s-.17,2.23,1.02,4.12,2.91,2.92,2.91,2.92"/>
  <path class="cls-2" d="m9.84,28.14s-.08,1.39.71,2.58,1.89,1.86,1.89,1.86"/>
  <polygon class="cls-1" points="19.22 14 19.22 16 17.22 16 19.22 17.04 21.22 19 20.22 16 23.22 17 19.98 15.47 19.22 14"/>
  <circle class="cls-1" cx="11.72" cy="20.5" r=".5"/>
  <circle class="cls-1" cx="20.72" cy="6.5" r=".5"/>
  <circle class="cls-1" cx="29.72" cy="29.5" r=".5"/>
</svg>