<?xml version="1.0" encoding="UTF-8"?>
<svg id="Bolt" xmlns="http://www.w3.org/2000/svg" viewBox="0 0 48 48">
  <defs>
    <style>
      .cls-1 {
        fill: #fff;
      }

      .cls-1, .cls-2, .cls-3, .cls-4, .cls-5, .cls-6 {
        stroke: #000;
        stroke-width: 2px;
      }

      .cls-1, .cls-4 {
        stroke-miterlimit: 10;
      }

      .cls-2, .cls-3, .cls-4, .cls-5, .cls-6 {
        fill: none;
      }

      .cls-2, .cls-3, .cls-5, .cls-6 {
        stroke-linecap: round;
        stroke-linejoin: round;
      }

      .cls-3 {
        stroke-dasharray: 0 0 3.25 4.34;
      }

      .cls-5 {
        stroke-dasharray: 0 0 .9 2.69;
      }

      .cls-6 {
        stroke-dasharray: 0 0 0 0 1.08 3.25 3.25 4.34;
      }
    </style>
  </defs>
  <rect class="cls-1" x="3" y="3" width="39.46" height="37.94"/>
  <line class="cls-4" x1="34.62" y1="34.62" x2="46" y2="46"/>
  <path class="cls-2" d="m8.06,37.15s11.38-6.32,16.44-11.38c6.32-6.32,10.12-17.71,10.12-17.71"/>
  <path class="cls-2" d="m7.81,16.45s3.27-1.82,4.72-3.27c1.82-1.82,2.91-5.09,2.91-5.09"/>
  <path class="cls-2" d="m6.62,28.01s8.17-4.2,11.72-7.71c4.43-4.39,6.81-12.58,6.81-12.58"/>
  <circle class="cls-1" cx="27.03" cy="24.5" r="12.65"/>
  <g>
    <path class="cls-2" d="m16.89,27.23s.15-.11.4-.3"/>
    <path class="cls-5" d="m19.43,25.29c1.44-1.14,3.18-2.59,4.32-3.77,1.75-1.82,3.34-4.28,4.29-5.87"/>
    <path class="cls-2" d="m28.71,14.48c.15-.28.24-.44.24-.44"/>
  </g>
  <g>
    <path class="cls-2" d="m21.38,35.57s.15-.1.41-.28"/>
    <path class="cls-3" d="m24.44,33.41c1.33-.98,2.9-2.17,4.27-3.34"/>
    <path class="cls-6" d="m30.32,28.61c.1-.1.2-.2.29-.29,2.24-2.3,4.17-5.49,5.34-7.65"/>
    <path class="cls-2" d="m36.94,18.74c.14-.29.21-.45.21-.45"/>
  </g>
</svg>